<svg width="96" height="96" viewBox="0 0 96 96" fill="none" xmlns="http://www.w3.org/2000/svg">
<circle cx="48" cy="48" r="48" fill="white" fill-opacity="0.5"/>
<path d="M57.4745 70.274C58.1307 69.6177 58.4993 68.7276 58.4993 67.7995C58.4993 66.8714 58.1307 65.9813 57.4745 65.325L40.1495 48L57.4745 30.675C58.1121 30.0149 58.4649 29.1308 58.4569 28.2131C58.4489 27.2954 58.0808 26.4176 57.4319 25.7686C56.783 25.1197 55.9051 24.7516 54.9875 24.7436C54.0698 24.7357 53.1857 25.0884 52.5255 25.726L32.726 45.5255C32.0699 46.1818 31.7013 47.0719 31.7013 48C31.7013 48.9281 32.0699 49.8182 32.726 50.4745L52.5255 70.274C53.1819 70.9301 54.072 71.2988 55 71.2988C55.9281 71.2988 56.8182 70.9301 57.4745 70.274Z" fill="white"/>
</svg>
