<svg width="128" height="169" viewBox="0 0 128 169" fill="none" xmlns="http://www.w3.org/2000/svg">
<g filter="url(#filter0_dd_230_4538)">
<path d="M33.256 142.304C34.24 142.304 34.72 142.76 34.72 143.648V163.376C34.72 164.288 34.264 164.72 33.256 164.72C32.248 164.72 31.768 164.288 31.768 163.376V153.776H30.064V163.28C30.064 164.192 29.56 164.624 28.576 164.624C27.592 164.624 27.088 164.192 27.088 163.28V143.792C27.088 142.88 27.616 142.448 28.576 142.448C29.536 142.448 30.064 142.88 30.064 143.792V150.896H31.768V143.648C31.768 142.76 32.272 142.304 33.256 142.304ZM16.36 142.952H23.776C24.736 142.952 25.216 143.384 25.216 144.344V162.68C25.216 163.64 24.736 164.072 23.776 164.072H16.36C15.4 164.072 14.92 163.64 14.92 162.68V144.344C14.92 143.384 15.4 142.952 16.36 142.952ZM17.872 161.312H22.264V145.712H17.872V161.312ZM57.352 147.176H59.296C60.16 147.176 60.52 147.656 60.52 148.616C60.52 149.6 60.16 150.08 59.296 150.08H57.352V153.944C57.352 154.856 56.872 155.24 55.816 155.24C54.784 155.24 54.28 154.856 54.28 153.944V143.6C54.28 142.712 54.808 142.304 55.816 142.304C56.848 142.304 57.352 142.712 57.352 143.6V147.176ZM44.992 151.208L40.36 154.52C39.688 154.976 39.016 154.76 38.464 153.92C37.936 153.128 38.056 152.528 38.728 152.072L43.456 148.712V145.904H39.544C38.656 145.904 38.344 145.472 38.344 144.512C38.344 143.576 38.656 143.144 39.544 143.144H50.392C51.28 143.144 51.592 143.576 51.592 144.512C51.592 145.472 51.28 145.904 50.392 145.904H46.48V148.712L51.232 152.072C51.904 152.528 52 153.128 51.496 153.92C50.944 154.76 50.272 154.976 49.6 154.52L44.992 151.208ZM44.536 155.792H52.888C55.984 155.792 57.856 157.496 57.856 160.352C57.856 163.208 55.936 164.912 52.84 164.912H44.536C41.416 164.912 39.544 163.208 39.544 160.352C39.544 157.496 41.416 155.792 44.536 155.792ZM44.488 162.2H52.936C54.376 162.2 54.88 161.288 54.88 160.352C54.88 159.416 54.376 158.504 52.936 158.504H44.488C43 158.504 42.52 159.44 42.52 160.352C42.52 161.264 43 162.2 44.488 162.2ZM88.0066 150.992H71.8786C70.7986 150.992 70.2946 150.56 70.2946 149.552V144.392C70.2946 143.312 70.7986 142.88 71.8786 142.88H87.9106C88.7746 142.88 89.1346 143.312 89.1346 144.248C89.1346 145.16 88.7746 145.616 87.9106 145.616H73.2946V148.256H88.0066C88.8706 148.256 89.2306 148.712 89.2306 149.624C89.2306 150.56 88.8706 150.992 88.0066 150.992ZM89.4226 155.12H70.0306C69.1666 155.12 68.7826 154.688 68.7826 153.728C68.7826 152.768 69.1666 152.288 70.0306 152.288H89.4226C90.3106 152.288 90.6706 152.768 90.6706 153.728C90.6706 154.688 90.3106 155.12 89.4226 155.12ZM84.9826 164.864H74.5186C71.5426 164.864 69.9346 163.256 69.9346 160.592C69.9346 157.928 71.5426 156.32 74.5186 156.32H84.9826C87.9586 156.32 89.5426 157.928 89.5426 160.592C89.5426 163.256 87.9586 164.864 84.9826 164.864ZM74.9266 162.128H84.5746C85.8466 162.128 86.5666 161.696 86.5666 160.592C86.5666 159.512 85.8466 159.056 84.5746 159.056H74.9266C73.6306 159.056 72.9346 159.464 72.9346 160.592C72.9346 161.696 73.6306 162.128 74.9266 162.128ZM105.263 153.296H113.423C114.311 153.296 114.671 153.776 114.671 154.736C114.671 155.696 114.311 156.128 113.423 156.128H94.0306C93.1666 156.128 92.7826 155.696 92.7826 154.736C92.7826 153.776 93.1666 153.296 94.0306 153.296H102.191V152.12H95.7586C94.8226 152.12 94.3906 151.688 94.3906 150.752V147.632C94.3906 146.696 94.8226 146.312 95.7586 146.312H109.967V145.352H95.6386C94.7506 145.352 94.3906 145.04 94.3906 144.128C94.3906 143.168 94.7506 142.88 95.6386 142.88H111.647C112.559 142.88 113.063 143.336 113.063 144.272V147.296C113.063 148.256 112.631 148.688 111.671 148.688H97.3186V149.672H112.271C113.135 149.672 113.519 149.96 113.519 150.872C113.519 151.832 113.135 152.12 112.271 152.12H105.263V153.296ZM95.3746 157.328H111.743C112.775 157.328 113.183 157.76 113.183 158.72V163.448C113.183 164.36 112.703 164.768 111.695 164.768C110.639 164.768 110.135 164.36 110.135 163.448V160.16H95.3746C94.5106 160.16 94.1266 159.68 94.1266 158.72C94.1266 157.784 94.5106 157.328 95.3746 157.328Z" fill="#FF47CB"/>
<g filter="url(#filter1_dd_230_4538)">
<circle cx="64" cy="66" r="60" fill="#FF47CB" fill-opacity="0.2" shape-rendering="crispEdges"/>
<circle cx="64" cy="66" r="59" stroke="#FF47CB" stroke-width="2" shape-rendering="crispEdges"/>
</g>
<path d="M44.1667 65.0001H64.0001M64.0001 65.0001H83.8334M64.0001 65.0001V45.1667M64.0001 65.0001V84.8334" stroke="#FF47CB" stroke-width="4" stroke-linecap="round" stroke-linejoin="round"/>
</g>
<defs>
<filter id="filter0_dd_230_4538" x="2" y="2" width="124" height="166.912" filterUnits="userSpaceOnUse" color-interpolation-filters="sRGB">
<feFlood flood-opacity="0" result="BackgroundImageFix"/>
<feColorMatrix in="SourceAlpha" type="matrix" values="0 0 0 0 0 0 0 0 0 0 0 0 0 0 0 0 0 0 127 0" result="hardAlpha"/>
<feOffset dy="2"/>
<feGaussianBlur stdDeviation="1"/>
<feComposite in2="hardAlpha" operator="out"/>
<feColorMatrix type="matrix" values="0 0 0 0 0 0 0 0 0 0 0 0 0 0 0 0 0 0 0.04 0"/>
<feBlend mode="normal" in2="BackgroundImageFix" result="effect1_dropShadow_230_4538"/>
<feColorMatrix in="SourceAlpha" type="matrix" values="0 0 0 0 0 0 0 0 0 0 0 0 0 0 0 0 0 0 127 0" result="hardAlpha"/>
<feOffset dy="-2"/>
<feGaussianBlur stdDeviation="1"/>
<feComposite in2="hardAlpha" operator="out"/>
<feColorMatrix type="matrix" values="0 0 0 0 0 0 0 0 0 0 0 0 0 0 0 0 0 0 0.04 0"/>
<feBlend mode="normal" in2="effect1_dropShadow_230_4538" result="effect2_dropShadow_230_4538"/>
<feBlend mode="normal" in="SourceGraphic" in2="effect2_dropShadow_230_4538" result="shape"/>
</filter>
<filter id="filter1_dd_230_4538" x="0" y="0" width="128" height="132" filterUnits="userSpaceOnUse" color-interpolation-filters="sRGB">
<feFlood flood-opacity="0" result="BackgroundImageFix"/>
<feColorMatrix in="SourceAlpha" type="matrix" values="0 0 0 0 0 0 0 0 0 0 0 0 0 0 0 0 0 0 127 0" result="hardAlpha"/>
<feOffset dy="2"/>
<feGaussianBlur stdDeviation="2"/>
<feComposite in2="hardAlpha" operator="out"/>
<feColorMatrix type="matrix" values="0 0 0 0 0 0 0 0 0 0 0 0 0 0 0 0 0 0 0.08 0"/>
<feBlend mode="normal" in2="BackgroundImageFix" result="effect1_dropShadow_230_4538"/>
<feColorMatrix in="SourceAlpha" type="matrix" values="0 0 0 0 0 0 0 0 0 0 0 0 0 0 0 0 0 0 127 0" result="hardAlpha"/>
<feOffset dy="-2"/>
<feGaussianBlur stdDeviation="2"/>
<feComposite in2="hardAlpha" operator="out"/>
<feColorMatrix type="matrix" values="0 0 0 0 0 0 0 0 0 0 0 0 0 0 0 0 0 0 0.08 0"/>
<feBlend mode="normal" in2="effect1_dropShadow_230_4538" result="effect2_dropShadow_230_4538"/>
<feBlend mode="normal" in="SourceGraphic" in2="effect2_dropShadow_230_4538" result="shape"/>
</filter>
</defs>
</svg>
