<svg width="96" height="96" viewBox="0 0 96 96" fill="none" xmlns="http://www.w3.org/2000/svg">
<circle cx="48" cy="48" r="48" transform="matrix(-1 0 0 1 96 0)" fill="white" fill-opacity="0.5"/>
<path d="M38.5255 70.274C37.8693 69.6177 37.5007 68.7276 37.5007 67.7995C37.5007 66.8714 37.8693 65.9813 38.5255 65.325L55.8505 48L38.5255 30.675C37.8879 30.0149 37.5352 29.1308 37.5431 28.2131C37.5511 27.2954 37.9192 26.4176 38.5681 25.7686C39.217 25.1197 40.0949 24.7516 41.0126 24.7436C41.9303 24.7357 42.8144 25.0884 43.4745 25.726L63.274 45.5255C63.9301 46.1818 64.2987 47.0719 64.2987 48C64.2987 48.9281 63.9301 49.8182 63.274 50.4745L43.4745 70.274C42.8181 70.9301 41.9281 71.2988 41 71.2988C40.0719 71.2988 39.1818 70.9301 38.5255 70.274Z" fill="white"/>
</svg>
